<svg xmlns="http://www.w3.org/2000/svg" width="239" height="236" viewBox="0 0 239 236" version="1.1"><path d="M 104.500 5.421 C 103.950 5.622, 100.013 6.562, 95.750 7.510 C 90.746 8.623, 88 9.714, 88 10.588 C 88 13.229, 92.762 22.659, 95.900 26.233 C 100.132 31.053, 106.212 34.479, 113.345 36.063 C 123.811 38.387, 135.951 34.376, 143.100 26.233 C 146.224 22.676, 151 13.233, 151 10.615 C 151 7.955, 138.421 5.723, 121.500 5.380 C 112.700 5.201, 105.050 5.220, 104.500 5.421 M 61 21.111 C 49.989 27.726, 36.759 39.916, 28.605 50.958 C 23.031 58.507, 20.707 62.717, 21.450 63.919 C 22.648 65.857, 35.233 70, 39.922 70 C 56.318 70, 72.070 54.105, 71.968 37.661 C 71.936 32.444, 67.546 20.008, 65.500 19.336 C 64.950 19.156, 62.925 19.954, 61 21.111 M 170.289 24.750 C 164.475 37.604, 166.798 49.910, 176.949 60.039 C 183.341 66.417, 191.301 70, 199.078 70 C 203.767 70, 216.352 65.857, 217.550 63.919 C 218.871 61.781, 208.859 47.722, 199.063 37.959 C 190.651 29.576, 176.520 19.017, 173.695 19.004 C 173.252 19.002, 171.720 21.587, 170.289 24.750 M 112.400 50.400 C 109.973 52.827, 109 54.701, 109 56.950 C 109 68.048, 122.499 72.788, 128.074 63.647 C 131.077 58.721, 130.596 54.396, 126.600 50.400 C 121.870 45.670, 117.130 45.670, 112.400 50.400 M 74.388 64.713 C 73.226 64.928, 71.027 66.406, 69.501 67.999 C 64.314 73.413, 66.542 82.703, 73.585 85.028 C 82.496 87.969, 89.978 80.524, 87.045 71.635 C 85.401 66.656, 79.966 63.684, 74.388 64.713 M 159.542 64.755 C 155.880 65.638, 153.104 68.155, 151.955 71.635 C 149.022 80.524, 156.504 87.969, 165.415 85.028 C 172.530 82.680, 174.745 73.198, 169.386 68.024 C 166.374 65.115, 162.871 63.952, 159.542 64.755 M 9.367 93.750 C 5.538 109.646, 7.832 149, 12.588 149 C 13.333 149, 16.342 147.939, 19.275 146.642 C 45.239 135.159, 45.239 99.841, 19.275 88.358 C 16.342 87.061, 13.333 86, 12.588 86 C 11.726 86, 10.555 88.816, 9.367 93.750 M 219.450 88.413 C 209.478 92.950, 203.331 100.564, 200.937 111.345 C 198.613 121.811, 202.624 133.951, 210.767 141.100 C 214.341 144.238, 223.771 149, 226.412 149 C 231.168 149, 233.462 109.646, 229.633 93.750 C 227.514 84.951, 227.302 84.840, 219.450 88.413 M 52.400 110.400 C 47.670 115.130, 47.670 119.870, 52.400 124.600 C 54.827 127.027, 56.701 128, 58.950 128 C 70.048 128, 74.788 114.501, 65.647 108.926 C 60.721 105.923, 56.396 106.404, 52.400 110.400 M 173.353 108.926 C 164.212 114.501, 168.952 128, 180.050 128 C 184.720 128, 190 122.427, 190 117.500 C 190 114.625, 189.241 113.041, 186.600 110.400 C 182.604 106.404, 178.279 105.923, 173.353 108.926 M 72.500 150.338 C 62.779 154.731, 66.079 170.273, 76.733 170.273 C 81.783 170.273, 85.605 167.726, 87.028 163.415 C 90.089 154.140, 81.398 146.318, 72.500 150.338 M 158 149.706 C 152.734 151.631, 150.077 157.673, 151.972 163.415 C 153.395 167.726, 157.217 170.273, 162.267 170.273 C 170.339 170.273, 175.139 160.720, 170.570 153.748 C 168.167 150.080, 162.214 148.166, 158 149.706 M 28.529 167.563 C 25.245 168.926, 22.170 170.430, 21.694 170.906 C 19.835 172.765, 29.506 186.632, 39.937 197.063 C 49.764 206.890, 63.787 216.868, 65.919 215.550 C 67.857 214.352, 72 201.767, 72 197.078 C 72 180.676, 56.083 164.908, 39.661 165.042 C 36.526 165.068, 32.156 166.057, 28.529 167.563 M 188 167.272 C 176.471 171.764, 167 185.206, 167 197.078 C 167 201.767, 171.143 214.352, 173.081 215.550 C 175.213 216.868, 189.236 206.890, 199.063 197.063 C 208.890 187.236, 218.868 173.213, 217.550 171.081 C 217.257 170.607, 214.084 169.045, 210.498 167.610 C 202.500 164.408, 195.617 164.305, 188 167.272 M 115.315 167.464 C 111.648 169.058, 109 173.498, 109 178.050 C 109 182.720, 114.573 188, 119.500 188 C 124.427 188, 130 182.720, 130 178.050 C 130 173.386, 127.324 169.033, 123.466 167.421 C 119.382 165.715, 119.335 165.715, 115.315 167.464 M 110.992 199.424 C 105.279 201.002, 99.138 204.863, 95.510 209.157 C 92.626 212.569, 88 221.967, 88 224.412 C 88 225.274, 90.816 226.445, 95.750 227.633 C 111.646 231.462, 151 229.168, 151 224.412 C 151 221.967, 146.374 212.569, 143.490 209.157 C 135.849 200.114, 122.725 196.183, 110.992 199.424" stroke="none" fill="#e53a23" fill-rule="evenodd"/><path d="M 0 118.004 L 0 236.008 119.750 235.754 L 239.500 235.500 239.754 117.750 L 240.008 0 120.004 0 L 0 0 0 118.004 M 0.484 118.500 C 0.484 183.400, 0.604 209.803, 0.750 177.173 C 0.896 144.543, 0.896 91.443, 0.750 59.173 C 0.603 26.903, 0.484 53.600, 0.484 118.500 M 104.500 5.421 C 103.950 5.622, 100.013 6.562, 95.750 7.510 C 90.746 8.623, 88 9.714, 88 10.588 C 88 13.229, 92.762 22.659, 95.900 26.233 C 100.132 31.053, 106.212 34.479, 113.345 36.063 C 123.811 38.387, 135.951 34.376, 143.100 26.233 C 146.224 22.676, 151 13.233, 151 10.615 C 151 7.955, 138.421 5.723, 121.500 5.380 C 112.700 5.201, 105.050 5.220, 104.500 5.421 M 61 21.111 C 49.989 27.726, 36.759 39.916, 28.605 50.958 C 23.031 58.507, 20.707 62.717, 21.450 63.919 C 22.648 65.857, 35.233 70, 39.922 70 C 56.318 70, 72.070 54.105, 71.968 37.661 C 71.936 32.444, 67.546 20.008, 65.500 19.336 C 64.950 19.156, 62.925 19.954, 61 21.111 M 170.289 24.750 C 164.475 37.604, 166.798 49.910, 176.949 60.039 C 183.341 66.417, 191.301 70, 199.078 70 C 203.767 70, 216.352 65.857, 217.550 63.919 C 218.871 61.781, 208.859 47.722, 199.063 37.959 C 190.651 29.576, 176.520 19.017, 173.695 19.004 C 173.252 19.002, 171.720 21.587, 170.289 24.750 M 112.400 50.400 C 109.973 52.827, 109 54.701, 109 56.950 C 109 68.048, 122.499 72.788, 128.074 63.647 C 131.077 58.721, 130.596 54.396, 126.600 50.400 C 121.870 45.670, 117.130 45.670, 112.400 50.400 M 74.388 64.713 C 73.226 64.928, 71.027 66.406, 69.501 67.999 C 64.314 73.413, 66.542 82.703, 73.585 85.028 C 82.496 87.969, 89.978 80.524, 87.045 71.635 C 85.401 66.656, 79.966 63.684, 74.388 64.713 M 159.542 64.755 C 155.880 65.638, 153.104 68.155, 151.955 71.635 C 149.022 80.524, 156.504 87.969, 165.415 85.028 C 172.530 82.680, 174.745 73.198, 169.386 68.024 C 166.374 65.115, 162.871 63.952, 159.542 64.755 M 9.367 93.750 C 5.538 109.646, 7.832 149, 12.588 149 C 13.333 149, 16.342 147.939, 19.275 146.642 C 45.239 135.159, 45.239 99.841, 19.275 88.358 C 16.342 87.061, 13.333 86, 12.588 86 C 11.726 86, 10.555 88.816, 9.367 93.750 M 219.450 88.413 C 209.478 92.950, 203.331 100.564, 200.937 111.345 C 198.613 121.811, 202.624 133.951, 210.767 141.100 C 214.341 144.238, 223.771 149, 226.412 149 C 231.168 149, 233.462 109.646, 229.633 93.750 C 227.514 84.951, 227.302 84.840, 219.450 88.413 M 52.400 110.400 C 47.670 115.130, 47.670 119.870, 52.400 124.600 C 54.827 127.027, 56.701 128, 58.950 128 C 70.048 128, 74.788 114.501, 65.647 108.926 C 60.721 105.923, 56.396 106.404, 52.400 110.400 M 173.353 108.926 C 164.212 114.501, 168.952 128, 180.050 128 C 184.720 128, 190 122.427, 190 117.500 C 190 114.625, 189.241 113.041, 186.600 110.400 C 182.604 106.404, 178.279 105.923, 173.353 108.926 M 72.500 150.338 C 62.779 154.731, 66.079 170.273, 76.733 170.273 C 81.783 170.273, 85.605 167.726, 87.028 163.415 C 90.089 154.140, 81.398 146.318, 72.500 150.338 M 158 149.706 C 152.734 151.631, 150.077 157.673, 151.972 163.415 C 153.395 167.726, 157.217 170.273, 162.267 170.273 C 170.339 170.273, 175.139 160.720, 170.570 153.748 C 168.167 150.080, 162.214 148.166, 158 149.706 M 28.529 167.563 C 25.245 168.926, 22.170 170.430, 21.694 170.906 C 19.835 172.765, 29.506 186.632, 39.937 197.063 C 49.764 206.890, 63.787 216.868, 65.919 215.550 C 67.857 214.352, 72 201.767, 72 197.078 C 72 180.676, 56.083 164.908, 39.661 165.042 C 36.526 165.068, 32.156 166.057, 28.529 167.563 M 188 167.272 C 176.471 171.764, 167 185.206, 167 197.078 C 167 201.767, 171.143 214.352, 173.081 215.550 C 175.213 216.868, 189.236 206.890, 199.063 197.063 C 208.890 187.236, 218.868 173.213, 217.550 171.081 C 217.257 170.607, 214.084 169.045, 210.498 167.610 C 202.500 164.408, 195.617 164.305, 188 167.272 M 115.315 167.464 C 111.648 169.058, 109 173.498, 109 178.050 C 109 182.720, 114.573 188, 119.500 188 C 124.427 188, 130 182.720, 130 178.050 C 130 173.386, 127.324 169.033, 123.466 167.421 C 119.382 165.715, 119.335 165.715, 115.315 167.464 M 110.992 199.424 C 105.279 201.002, 99.138 204.863, 95.510 209.157 C 92.626 212.569, 88 221.967, 88 224.412 C 88 225.274, 90.816 226.445, 95.750 227.633 C 111.646 231.462, 151 229.168, 151 224.412 C 151 221.967, 146.374 212.569, 143.490 209.157 C 135.849 200.114, 122.725 196.183, 110.992 199.424" stroke="none" fill="#fbfafa" fill-rule="evenodd"/></svg>