<svg xmlns="http://www.w3.org/2000/svg" width="150" height="138" viewBox="0 0 150 138" version="1.1"><path d="M 59.200 22.200 C 58.540 22.860, 58 24.210, 58 25.200 C 58 26.190, 57.438 27.007, 56.750 27.015 C 56.063 27.024, 54.841 27.447, 54.036 27.957 C 52.740 28.776, 52.394 30.202, 52.081 36.009 C 51.969 38.104, 48.150 40.355, 46.672 39.199 C 45.014 37.904, 38.889 38.561, 37.914 40.139 C 37.465 40.865, 36.821 43.101, 36.482 45.108 C 36.138 47.142, 34.789 49.693, 33.433 50.872 C 30.786 53.173, 30.305 55.905, 32.211 57.811 C 33.159 58.759, 32.724 59.659, 30.211 61.955 C 26.873 65.003, 26.298 66.448, 28.003 67.502 C 28.554 67.842, 29.911 70.110, 31.018 72.540 C 32.361 75.488, 34.303 77.690, 36.856 79.160 C 38.960 80.370, 41.090 82.237, 41.591 83.307 C 43.029 86.387, 50.005 86.447, 54.113 83.417 C 55.908 82.092, 57.701 80.484, 58.097 79.843 C 58.547 79.115, 60.166 80.784, 62.405 84.284 C 65.336 88.867, 65.824 90.332, 65.074 92.306 C 64.002 95.125, 53.867 101.202, 50.659 100.949 C 44.744 100.482, 42 102.383, 42 106.949 C 42 112.315, 42.921 112.488, 72.404 112.640 C 102.400 112.794, 104 112.511, 104 107.048 C 104 102.735, 101.041 100.345, 96.381 100.895 C 94.211 101.152, 83.506 94.396, 82.228 91.964 C 80.657 88.973, 81.444 82.272, 83.654 79.830 C 85.116 78.215, 85.375 78.282, 87.856 80.930 C 92.479 85.864, 103.128 85.923, 103.841 81.019 C 104.187 78.638, 107.595 75.094, 109.596 75.033 C 112.605 74.942, 117 71.721, 117 69.607 C 117 67.468, 113.236 63.276, 110.007 61.820 C 109.016 61.373, 109.453 61.116, 111.281 61.070 C 113.008 61.027, 114.275 60.336, 114.622 59.250 C 114.930 58.288, 115.636 56.544, 116.193 55.375 C 117.363 52.917, 115.763 49, 113.590 49 C 112.853 49, 111.980 47.650, 111.650 46 C 111.286 44.178, 110.426 43, 109.462 43 C 108.549 43, 107.950 42.257, 108.052 41.250 C 108.150 40.288, 108.178 38.955, 108.115 38.289 C 107.965 36.710, 100.492 34.709, 97.862 35.544 C 96.432 35.998, 95.383 35.565, 94.354 34.096 C 93.547 32.943, 92.237 32, 91.443 32 C 90.649 32, 90 31.394, 90 30.654 C 90 28.402, 87.049 23.233, 85.403 22.601 C 84.552 22.274, 83.076 22.424, 82.124 22.934 C 81.074 23.496, 79.823 23.500, 78.946 22.946 C 76.874 21.634, 76.596 21.719, 73.490 24.597 C 71.036 26.871, 70.576 26.994, 69.789 25.587 C 69.003 24.182, 62.959 21, 61.078 21 C 60.705 21, 59.860 21.540, 59.200 22.200 M 59.816 25.710 C 59.591 27.641, 58.787 28.588, 57.024 29 C 55.037 29.465, 54.375 30.460, 53.673 34.039 C 53.192 36.493, 52.169 38.860, 51.399 39.300 C 50.630 39.740, 50 40.752, 50 41.550 C 50 43.399, 47.386 43.449, 46.682 41.613 C 45.822 39.372, 39.598 40.129, 39.142 42.530 C 38.937 43.614, 38.258 44.824, 37.634 45.219 C 36.799 45.749, 36.832 46.475, 37.758 47.969 C 38.812 49.669, 38.771 50, 37.508 50 C 36.679 50, 36 50.450, 36 51 C 36 51.550, 35.373 52, 34.607 52 C 32.470 52, 31.768 55.087, 33.476 56.973 C 35.655 59.381, 35.392 60.338, 32 62.341 C 30.350 63.316, 29 64.468, 29 64.903 C 29 66.866, 32.286 72, 33.542 72 C 34.420 72, 34.706 72.603, 34.313 73.628 C 33.545 75.629, 37.529 78.946, 40.738 78.978 C 42.453 78.995, 42.921 79.522, 42.738 81.231 C 42.526 83.218, 42.994 83.486, 47 83.677 C 49.658 83.804, 51.909 83.377, 52.500 82.634 C 53.050 81.942, 54.288 81.081, 55.250 80.719 C 56.212 80.358, 57 79.374, 57 78.531 C 57 74.867, 61.637 79.104, 65.457 86.258 C 68.298 91.581, 66.925 94.536, 59.631 98.799 C 56.405 100.684, 52.581 102.229, 51.133 102.233 C 44.213 102.252, 41.669 104.645, 43.980 108.962 C 45.037 110.938, 45.921 111, 73 111 C 100.079 111, 100.963 110.938, 102.020 108.962 C 102.620 107.841, 102.831 106.042, 102.489 104.965 C 101.895 103.095, 98.457 101.525, 96.406 102.188 C 94.820 102.701, 83.170 96.081, 81.525 93.732 C 79.011 90.143, 79.553 82.685, 82.589 79.077 C 85.315 75.837, 86.963 75.163, 87.055 77.250 C 87.086 77.938, 88.469 79.574, 90.128 80.886 C 95.077 84.800, 103.994 83.754, 102.344 79.454 C 101.832 78.121, 106.970 74.003, 109.154 73.995 C 109.894 73.992, 111.830 72.926, 113.456 71.625 L 116.413 69.259 113.214 66.060 C 110.907 63.753, 109.455 63.038, 108.007 63.498 C 106.800 63.881, 106 63.681, 106 62.996 C 106 61.129, 108.330 59.500, 111 59.500 C 112.669 59.500, 113.504 58.942, 113.513 57.821 C 113.520 56.897, 113.857 55.809, 114.263 55.404 C 115.813 53.853, 114.995 51, 113 51 C 111.900 51, 110.931 50.438, 110.848 49.750 C 110.764 49.063, 110.591 48.050, 110.463 47.500 C 110.335 46.950, 110.179 45.938, 110.115 45.250 C 110.052 44.563, 109.175 44, 108.167 44 C 105.537 44, 104.950 43.052, 106.271 40.938 C 107.560 38.874, 106.874 37.730, 104.232 37.536 C 103.260 37.464, 101.891 37.050, 101.189 36.617 C 100.481 36.179, 99.253 36.375, 98.432 37.056 C 97.618 37.732, 96.666 38, 96.318 37.651 C 95.969 37.303, 95.070 37.527, 94.319 38.150 C 93.239 39.046, 93.087 38.937, 93.589 37.629 C 94.496 35.264, 92.148 32.818, 89.712 33.591 C 88.042 34.122, 87.800 33.872, 88.266 32.092 C 88.573 30.917, 88.192 28.687, 87.418 27.136 C 86.158 24.609, 85.518 24.328, 81.251 24.416 C 78.049 24.482, 75.464 25.246, 73.354 26.748 L 70.218 28.981 68.565 26.459 C 67.656 25.071, 66.513 24.183, 66.025 24.484 C 65.537 24.786, 64.856 24.575, 64.510 24.016 C 63.174 21.855, 60.139 22.950, 59.816 25.710 M 61.502 26.007 C 61.961 27.453, 61.732 28.594, 60.857 29.219 C 59.830 29.953, 59.934 30.049, 61.282 29.613 C 62.550 29.204, 63.336 29.754, 64.007 31.519 C 65.039 34.234, 65.116 34.276, 67.418 33.393 C 69.146 32.730, 69.614 30, 68 30 C 67.450 30, 67 29.152, 67 28.117 C 67 27.081, 66.213 25.955, 65.250 25.616 C 64.287 25.276, 62.890 24.721, 62.145 24.381 C 61.127 23.917, 60.967 24.321, 61.502 26.007 M 75.209 27.690 C 73.778 29.297, 73.161 30.931, 73.538 32.118 C 73.884 33.209, 73.656 34, 72.996 34 C 72.314 34, 72.471 34.614, 73.386 35.529 C 74.227 36.370, 74.661 37.720, 74.351 38.529 C 74.040 39.338, 74.046 40, 74.364 40 C 74.683 40, 75.399 38.538, 75.957 36.750 L 76.971 33.500 76.659 36.750 C 76.313 40.343, 77.061 40.796, 79.429 38.429 C 81.324 36.533, 81.431 35.312, 79.750 34.746 C 78.787 34.422, 78.830 33.926, 79.936 32.586 C 81.142 31.126, 81.153 30.713, 80.006 30.004 C 79.255 29.540, 78.530 28.408, 78.395 27.488 C 78.019 24.922, 77.654 24.945, 75.209 27.690 M 82.162 26.604 C 80.639 27.365, 80.223 28.020, 80.971 28.482 C 81.602 28.872, 82.042 30.161, 81.948 31.346 C 81.855 32.530, 81.838 34.625, 81.912 36 L 82.044 38.500 83.954 36.015 C 85.004 34.648, 85.673 33.340, 85.440 33.107 C 85.208 32.874, 85.468 32.141, 86.019 31.477 C 86.698 30.660, 86.614 29.488, 85.761 27.852 C 84.651 25.725, 84.219 25.575, 82.162 26.604 M 55.896 30.215 C 55.838 30.372, 55.686 32.180, 55.557 34.234 C 55.379 37.071, 55.752 38.104, 57.111 38.535 C 58.223 38.888, 58.674 39.686, 58.304 40.650 C 57.790 41.990, 57.995 42.020, 59.830 40.874 C 61.207 40.014, 61.608 39.208, 60.975 38.575 C 59.402 37.002, 59.857 35.637, 61.500 37 C 62.325 37.685, 63.003 38.977, 63.006 39.872 C 63.010 40.830, 63.627 40.321, 64.506 38.636 C 66.350 35.100, 66.350 35, 64.500 35 C 63.641 35, 63 34.099, 63 32.893 C 63 31.388, 62.551 30.958, 61.428 31.389 C 60.563 31.721, 58.988 31.529, 57.928 30.961 C 56.867 30.394, 55.953 30.058, 55.896 30.215 M 70.667 31.667 C 70.300 32.033, 70 32.798, 70 33.367 C 70 33.993, 70.466 33.934, 71.183 33.217 C 71.834 32.566, 72.134 31.801, 71.850 31.517 C 71.566 31.232, 71.033 31.300, 70.667 31.667 M 67 37 C 67 38.100, 66.584 39, 66.077 39 C 65.569 39, 65.827 40.350, 66.650 42 C 68.521 45.750, 69.839 45.872, 69.357 42.250 L 68.991 39.500 70.079 42.250 C 71.299 45.335, 72.213 45.653, 73.926 43.589 C 74.727 42.624, 74.765 41.973, 74.049 41.530 C 73.472 41.174, 73 39.798, 73 38.472 C 73 36.819, 72.561 36.231, 71.601 36.600 C 70.832 36.895, 69.905 36.656, 69.542 36.068 C 68.461 34.318, 67 34.854, 67 37 M 89.048 35.949 C 88.249 36.455, 87.202 36.625, 86.721 36.328 C 85.522 35.587, 81.750 39.786, 82.510 41.016 C 82.904 41.653, 83.900 41.590, 85.311 40.839 C 87.290 39.784, 87.369 39.832, 86.128 41.336 C 85.032 42.665, 85.004 43.300, 85.991 44.489 C 86.671 45.308, 87.656 45.713, 88.180 45.389 C 88.704 45.065, 88.885 44.552, 88.582 44.249 C 88.279 43.946, 88.765 43.161, 89.662 42.506 C 91.298 41.309, 92.632 34.987, 91.242 35.015 C 90.834 35.024, 89.846 35.444, 89.048 35.949 M 96.357 39.116 C 93.567 39.902, 91.242 42.575, 92.368 43.702 C 92.597 43.930, 94.463 43.416, 96.515 42.558 C 99.650 41.248, 100.052 41.232, 99.037 42.456 C 97.185 44.687, 98.638 46.122, 101.451 44.840 C 103.344 43.978, 105.665 40.129, 104.710 39.434 C 103.546 38.587, 98.866 38.409, 96.357 39.116 M 51.604 40.832 C 51.344 41.252, 51.511 42.208, 51.973 42.957 C 52.436 43.706, 52.583 44.922, 52.300 45.659 C 52.018 46.397, 52.409 47, 53.171 47 C 53.932 47, 55.326 47.900, 56.268 49 C 58.588 51.709, 60.387 51.575, 59.630 48.750 C 59.299 47.513, 59.021 45.796, 59.014 44.935 C 58.999 43.242, 52.380 39.576, 51.604 40.832 M 77.533 41.352 C 75.796 42.623, 75.851 42.746, 78.460 43.401 C 81.711 44.217, 82.275 43.881, 81.417 41.643 C 80.651 39.647, 79.938 39.594, 77.533 41.352 M 39.672 44.917 C 39.372 46.470, 39.700 47.798, 40.494 48.248 C 41.272 48.688, 41.581 49.886, 41.246 51.166 C 40.799 52.877, 41.025 53.204, 42.313 52.710 C 43.312 52.327, 44.320 52.747, 44.906 53.792 C 45.798 55.379, 45.911 55.382, 46.510 53.827 C 46.907 52.798, 46.356 51.356, 45.077 50.077 C 43.935 48.935, 43 47.464, 43 46.809 C 43 46.154, 43.640 46.491, 44.421 47.559 C 45.416 48.917, 47.037 49.500, 49.824 49.500 C 52.014 49.500, 53.598 49.163, 53.344 48.750 C 53.090 48.337, 52.009 48, 50.941 48 C 49.677 48, 49 47.313, 49 46.031 C 49 44.692, 48.520 44.247, 47.500 44.638 C 46.595 44.986, 46 44.643, 46 43.774 C 46 42.849, 44.956 42.333, 43.085 42.333 C 40.745 42.333, 40.071 42.843, 39.672 44.917 M 60.667 42.667 C 59.445 43.888, 59.938 47.196, 61.250 46.584 C 61.938 46.263, 63.288 45.724, 64.250 45.384 C 66.427 44.616, 66.500 43.406, 64.418 42.607 C 62.385 41.827, 61.492 41.841, 60.667 42.667 M 50 45 C 50 45.733, 50.300 46.033, 50.667 45.667 C 51.033 45.300, 51.033 44.700, 50.667 44.333 C 50.300 43.967, 50 44.267, 50 45 M 89.410 45.870 C 87.861 49.415, 88.121 49.723, 91.644 48.512 C 94.731 47.450, 98.079 45.165, 96.950 44.890 C 93.449 44.037, 90.015 44.484, 89.410 45.870 M 80.542 47.549 C 78.730 49.228, 77.966 50.762, 78.302 52.048 C 78.583 53.120, 78.404 54.250, 77.906 54.558 C 76.761 55.266, 76.714 58, 77.847 58 C 78.313 58, 79.227 56.987, 79.878 55.750 C 81.084 53.457, 80.833 54.889, 79.396 58.500 C 78.647 60.380, 78.736 60.410, 80.866 59 C 82.113 58.175, 83.135 57.050, 83.138 56.500 C 83.140 55.950, 83.732 54.825, 84.453 54 C 86.738 51.385, 87.255 48.113, 85.640 46.497 C 83.711 44.568, 83.771 44.556, 80.542 47.549 M 101.480 46.033 C 101.151 46.565, 100.051 47, 99.035 47 C 97.671 47, 97.326 47.531, 97.718 49.028 C 98.113 50.541, 98.788 50.903, 100.374 50.453 C 101.984 49.995, 101.712 50.491, 99.250 52.497 C 97.463 53.953, 96 55.591, 96 56.136 C 96 56.681, 97.463 56.986, 99.250 56.813 C 101.702 56.577, 102.428 56.070, 102.206 54.750 C 101.988 53.450, 102.593 53, 104.563 53 C 106.601 53, 107.070 52.624, 106.590 51.373 C 106.216 50.400, 106.676 49.226, 107.731 48.455 C 108.702 47.745, 109.273 46.966, 108.998 46.725 C 107.815 45.685, 102.024 45.151, 101.480 46.033 M 69.697 46.750 C 69.466 47.163, 69.003 48.649, 68.668 50.054 C 68.026 52.752, 70.626 56, 73.428 56 C 74.201 56, 75.029 56.563, 75.269 57.250 C 75.509 57.938, 76.033 56.604, 76.434 54.287 C 77.237 49.649, 76.645 47.815, 74.597 48.601 C 73.861 48.884, 72.989 48.414, 72.660 47.557 C 72.032 45.920, 70.411 45.478, 69.697 46.750 M 92 50.378 C 92 52.223, 94.651 54.334, 95.956 53.527 C 96.530 53.172, 97 52.009, 97 50.941 C 97 49.537, 96.308 49, 94.500 49 C 93.043 49, 92 49.575, 92 50.378 M 49.750 50.749 C 47.701 51.214, 47.649 51.475, 49.070 54.130 C 49.924 55.726, 50.428 55.890, 51.570 54.942 C 54.299 52.677, 53.129 49.982, 49.750 50.749 M 108 52 C 108 53.292, 107.333 54, 106.117 54 C 105.074 54, 104 54.893, 103.710 56 C 103.357 57.351, 102.346 58, 100.594 58 C 99.167 58, 98 58.450, 98 59 C 98 59.550, 99.773 60, 101.941 60 C 104.109 60, 106.160 59.550, 106.500 59 C 106.840 58.450, 108.164 58, 109.442 58 C 110.754 58, 112.036 57.238, 112.384 56.250 C 112.724 55.288, 113.263 53.938, 113.584 53.250 C 113.951 52.464, 113.394 52, 112.083 52 C 110.938 52, 110 51.550, 110 51 C 110 50.450, 109.550 50, 109 50 C 108.450 50, 108 50.900, 108 52 M 37 52.521 C 37 53.335, 36.325 54, 35.500 54 C 34.675 54, 34 54.350, 34 54.778 C 34 56.024, 37.884 59, 39.511 59 C 40.330 59, 41 59.675, 41 60.500 C 41 61.325, 41.648 62, 42.441 62 C 44.340 62, 45.328 60.321, 43.935 59.460 C 43.332 59.087, 43.072 57.818, 43.357 56.641 C 43.765 54.960, 43.139 54.129, 40.438 52.771 C 37.517 51.302, 37 51.265, 37 52.521 M 59.563 53.184 C 57.700 54.953, 57.254 59.074, 58.501 63.002 C 59.358 65.702, 61.381 65.566, 60.673 62.856 C 60.357 61.648, 60.487 61.102, 60.971 61.606 C 61.444 62.098, 61.981 63.530, 62.165 64.790 C 62.615 67.866, 64.421 67.690, 64.816 64.531 C 64.990 63.139, 64.642 62, 64.043 62 C 63.390 62, 63.108 60.595, 63.339 58.500 C 63.611 56.024, 63.326 55, 62.362 55 C 61.613 55, 61 54.628, 61 54.173 C 61 53.718, 62.350 53.545, 64 53.787 C 65.650 54.029, 67 53.777, 67 53.227 C 67 51.359, 61.518 51.328, 59.563 53.184 M 85.543 54.931 C 84.860 56.036, 86.437 57.230, 87.361 56.306 C 88.311 55.355, 88.134 54, 87.059 54 C 86.541 54, 85.859 54.419, 85.543 54.931 M 45.500 56.593 L 43.500 58.124 45.500 59.612 C 46.600 60.431, 48.856 60.986, 50.514 60.846 C 52.172 60.705, 54.022 60.896, 54.625 61.268 C 55.228 61.641, 56.009 61.658, 56.361 61.306 C 57.779 59.887, 56.837 59, 53.910 59 C 52.066 59, 50.152 58.207, 49.160 57.031 C 47.647 55.236, 47.323 55.197, 45.500 56.593 M 66.856 55.669 C 64.757 56.227, 63.814 60.715, 65.648 61.419 C 66.392 61.704, 67 62.626, 67 63.469 C 67 64.318, 67.865 65, 68.941 65 C 70.009 65, 71.160 65.450, 71.500 66 C 71.840 66.550, 72.541 67, 73.059 67 C 74.558 67, 74.152 64.830, 72.250 62.674 C 70.521 60.715, 70.532 60.711, 73.157 62.400 C 76.250 64.389, 78.051 62.908, 75.564 60.421 C 74.704 59.561, 74 58.453, 74 57.960 C 74 57.467, 73.329 57.320, 72.508 57.635 C 71.657 57.962, 70.753 57.519, 70.401 56.604 C 69.769 54.956, 69.653 54.925, 66.856 55.669 M 85.269 58.404 C 84.042 58.984, 82.800 60.080, 82.508 60.840 C 81.982 62.210, 83.121 62.137, 88.657 60.446 C 89.671 60.136, 88.746 60.854, 86.602 62.041 C 83.740 63.626, 83.063 64.421, 84.055 65.034 C 84.797 65.493, 85.876 65.571, 86.452 65.209 C 87.029 64.846, 88.287 64.679, 89.250 64.838 C 90.213 64.996, 91 64.647, 91 64.063 C 91 63.478, 91.563 62.996, 92.250 62.992 C 93.952 62.982, 96.260 58.055, 94.656 57.858 C 90.259 57.316, 87.196 57.494, 85.269 58.404 M 37.500 61 C 37.160 61.550, 37.359 62, 37.941 62 C 38.523 62, 39 61.550, 39 61 C 39 60.450, 38.802 60, 38.559 60 C 38.316 60, 37.840 60.450, 37.500 61 M 79 62.559 C 79 63.416, 79.450 63.840, 80 63.500 C 80.550 63.160, 81 62.459, 81 61.941 C 81 61.423, 80.550 61, 80 61 C 79.450 61, 79 61.702, 79 62.559 M 99 64.073 C 99 66.388, 99.405 67.067, 100.643 66.823 C 103.271 66.306, 104.813 63.142, 103 61.987 C 100.270 60.247, 99 60.909, 99 64.073 M 34 63.441 C 34 64.382, 33.108 65.013, 31.750 65.032 C 29.666 65.061, 29.629 65.162, 31.250 66.392 C 32.212 67.123, 33 68.201, 33 68.789 C 33 69.378, 34.570 69.777, 36.496 69.679 C 40.149 69.492, 41.267 67.536, 38.250 66.609 C 37.288 66.314, 37.759 66.222, 39.298 66.406 C 41.441 66.663, 42.024 66.361, 41.786 65.121 C 41.601 64.158, 40.423 63.460, 38.886 63.401 C 37.463 63.347, 35.781 62.983, 35.149 62.592 C 34.471 62.173, 34 62.521, 34 63.441 M 44.057 62.944 C 42.867 63.696, 42.829 64.330, 43.840 66.548 C 44.916 68.910, 44.868 69.163, 43.441 68.616 C 42.359 68.200, 41.650 68.623, 41.321 69.880 C 41.018 71.038, 40.185 71.603, 39.164 71.341 C 38.224 71.100, 36.952 71.804, 36.242 72.957 C 35.195 74.656, 35.229 75, 36.442 75 C 37.244 75, 38.288 75.692, 38.762 76.539 C 39.492 77.843, 39.994 77.880, 42.061 76.783 C 46.889 74.222, 47.069 73.998, 45.958 71.922 C 45.172 70.453, 45.296 69.416, 46.455 67.760 C 49.392 63.568, 47.877 60.527, 44.057 62.944 M 49.433 64.778 C 49.587 66.223, 50.230 67.577, 50.863 67.788 C 51.495 67.998, 51.756 68.586, 51.443 69.092 C 51.130 69.599, 51.689 70.315, 52.687 70.682 C 53.684 71.049, 54.849 71.927, 55.276 72.633 C 55.703 73.339, 56.744 73.652, 57.588 73.328 C 58.839 72.848, 58.603 72.189, 56.312 69.774 L 53.500 66.810 57.250 69.004 C 60.486 70.897, 61 70.974, 61 69.567 C 61 68.671, 60.325 67.678, 59.500 67.362 C 58.675 67.045, 58 66.212, 58 65.510 C 58 64.251, 55.574 63.154, 51.326 62.492 C 49.508 62.208, 49.198 62.581, 49.433 64.778 M 76.920 64.844 C 76.875 65.205, 76.723 67.789, 76.580 70.586 C 76.197 78.085, 75.165 79.016, 72.362 74.386 C 71.069 72.249, 70.008 69.713, 70.005 68.750 C 70.002 67.722, 69.244 67, 68.167 67 C 65.145 67, 64.982 68.081, 67.658 70.382 C 69.250 71.751, 70.486 74.191, 70.993 76.961 C 72.089 82.956, 71.470 84.354, 68.562 82.448 C 65.816 80.650, 64 76.892, 64 73.012 C 64 71.420, 63.550 69.840, 63 69.500 C 62.450 69.160, 62 69.584, 62 70.441 C 62 71.298, 61.598 72, 61.107 72 C 58.931 72, 59.066 75.464, 61.336 77.913 C 62.656 79.336, 64.969 82.649, 66.478 85.276 C 68.971 89.618, 69.104 90.335, 67.934 93.161 C 67.206 94.916, 64.747 97.473, 62.281 99.037 C 59.880 100.559, 58.460 101.987, 59.126 102.209 C 61.339 102.946, 67.433 99.029, 69.187 95.741 C 70.138 93.958, 70.935 93.085, 70.958 93.800 C 70.981 94.514, 70.283 96.487, 69.406 98.182 C 68.099 100.709, 68.051 101.414, 69.141 102.087 C 69.969 102.599, 70.779 102.360, 71.285 101.455 C 72.332 99.584, 74.471 99.607, 77.392 101.521 C 79.023 102.590, 80.417 102.781, 82.084 102.164 C 84.450 101.290, 84.447 101.283, 81.185 99.596 C 77.379 97.627, 75.946 94.531, 76.136 88.685 C 76.215 86.267, 76.434 85.555, 76.656 87 C 78.001 95.766, 78.068 95.904, 82.443 98.857 C 87.432 102.224, 91 103.595, 91 102.145 C 91 101.601, 89.499 100.660, 87.665 100.054 C 85.831 99.449, 83.066 97.635, 81.522 96.023 C 79.140 93.537, 78.714 92.258, 78.714 87.589 C 78.714 82.056, 80.649 77.487, 83.777 75.633 C 84.986 74.917, 85.006 74.622, 83.893 73.934 C 83.058 73.418, 81.872 73.711, 80.773 74.706 C 79.106 76.214, 79 76.088, 79 72.589 C 79 70.543, 79.439 68.048, 79.976 67.045 C 80.748 65.601, 80.540 65.113, 78.976 64.704 C 77.889 64.420, 76.964 64.483, 76.920 64.844 M 92 65 C 92 65.550, 90.925 66, 89.611 66 C 88.297 66, 86.159 66.925, 84.861 68.056 C 82.640 69.991, 82.629 70.050, 84.684 69.056 C 87.840 67.530, 88.390 67.753, 86.393 69.750 C 83.408 72.735, 87.305 72.549, 90.538 69.552 C 92.053 68.149, 92.946 67, 92.524 67 C 92.101 67, 92.315 66.325, 93 65.500 C 93.860 64.464, 93.898 64, 93.122 64 C 92.505 64, 92 64.450, 92 65 M 104.385 66.189 C 104.150 66.567, 104.755 67.347, 105.729 67.921 C 107.119 68.741, 106.748 68.856, 104 68.456 C 101.068 68.029, 100.865 68.108, 102.750 68.941 C 103.987 69.488, 105 70.400, 105 70.968 C 105 72.388, 108.554 72.264, 111.264 70.750 C 112.494 70.063, 113.650 69.425, 113.833 69.333 C 114.017 69.242, 113.274 68.274, 112.183 67.183 C 110.305 65.305, 105.327 64.670, 104.385 66.189 M 81.081 67.849 C 79.715 70.401, 79.675 73.319, 81.016 72.490 C 81.575 72.144, 81.762 71.423, 81.430 70.887 C 81.099 70.351, 81.381 69.246, 82.056 68.432 C 82.732 67.618, 83.032 66.699, 82.724 66.390 C 82.415 66.081, 81.676 66.738, 81.081 67.849 M 71 68.550 C 71 68.852, 71.743 70.536, 72.652 72.293 C 74.138 75.168, 74.372 75.289, 74.997 73.509 C 76.021 70.589, 75.028 68, 72.883 68 C 71.848 68, 71 68.247, 71 68.550 M 65.004 72.715 C 65.006 74.247, 65.993 77.075, 67.197 79 C 68.981 81.851, 69.461 82.157, 69.786 80.650 C 70.502 77.329, 68.957 72.048, 66.957 70.977 C 65.232 70.054, 65 70.260, 65.004 72.715 M 94.750 72.025 C 97.088 73.143, 99 74.495, 99 75.029 C 99 76.224, 102.016 76.276, 103.853 75.112 C 104.843 74.485, 104.935 73.747, 104.197 72.367 C 103.395 70.869, 101.880 70.430, 96.843 70.236 L 90.500 69.992 94.750 72.025 M 52.015 73.156 C 52.005 74.318, 51.402 74.656, 50 74.290 C 48.882 73.997, 48 74.259, 48 74.883 C 48 75.498, 47.325 76, 46.500 76 C 45.675 76, 44.994 76.563, 44.986 77.250 C 44.979 77.938, 44.688 79.564, 44.340 80.863 C 43.774 82.977, 43.918 83.114, 45.700 82.160 C 47.112 81.405, 48.005 81.405, 48.760 82.160 C 50.021 83.421, 52 82.442, 52 80.558 C 52 79.829, 52.900 78.998, 54 78.710 C 55.100 78.423, 56 77.695, 56 77.094 C 56 75.714, 54.487 75.701, 51.684 77.056 L 49.500 78.113 51.660 76.219 C 53.152 74.911, 53.543 73.889, 52.925 72.913 C 52.190 71.752, 52.028 71.795, 52.015 73.156 M 91.244 72.664 C 90.380 73.013, 90.691 73.756, 92.244 75.052 C 95.018 77.366, 93.828 77.589, 90.465 75.385 C 87.170 73.226, 87.081 75.596, 90.340 78.684 C 93.752 81.917, 101.471 82.391, 100.283 79.294 C 99.298 76.728, 96.719 74, 95.278 74 C 94.575 74, 94 73.550, 94 73 C 94 71.935, 93.272 71.847, 91.244 72.664 M 65 102 C 65 102.733, 65.300 103.033, 65.667 102.667 C 66.033 102.300, 66.033 101.700, 65.667 101.333 C 65.300 100.967, 65 101.267, 65 102 M 73.500 102 C 73.840 102.550, 74.316 103, 74.559 103 C 74.802 103, 75 102.550, 75 102 C 75 101.450, 74.523 101, 73.941 101 C 73.359 101, 73.160 101.450, 73.500 102 M 46.529 104.355 C 45.569 105.057, 44.950 106.502, 45.154 107.566 C 45.453 109.124, 46.436 109.527, 50.214 109.640 L 54.902 109.781 53.310 107.350 C 51.027 103.867, 48.639 102.812, 46.529 104.355 M 65.750 103.785 C 62.489 104.197, 62.342 104.916, 64.946 107.711 C 67.456 110.406, 74.486 110.776, 73.074 108.139 C 71.485 105.170, 68.559 103.431, 65.750 103.785 M 84.655 103.927 L 81.810 104.500 83.900 107.151 C 85.491 109.170, 86.825 109.779, 89.495 109.703 C 93.412 109.592, 93.397 109.609, 91.977 106.957 C 90.559 104.307, 88.009 103.252, 84.655 103.927" stroke="none" fill="#dfe5eb" fill-rule="evenodd"/><path d="M 0 69.006 L 0 138.013 75.250 137.756 L 150.500 137.500 150.757 68.750 L 151.014 0 75.507 0 L 0 0 0 69.006 M 0.473 69.500 C 0.473 107.450, 0.598 122.830, 0.750 103.677 C 0.902 84.524, 0.902 53.474, 0.749 34.677 C 0.597 15.880, 0.473 31.550, 0.473 69.500 M 59.200 22.200 C 58.540 22.860, 58 24.210, 58 25.200 C 58 26.190, 57.438 27.007, 56.750 27.015 C 56.063 27.024, 54.841 27.447, 54.036 27.957 C 52.740 28.776, 52.394 30.202, 52.081 36.009 C 51.969 38.104, 48.150 40.355, 46.672 39.199 C 45.014 37.904, 38.889 38.561, 37.914 40.139 C 37.465 40.865, 36.821 43.101, 36.482 45.108 C 36.138 47.142, 34.789 49.693, 33.433 50.872 C 30.786 53.173, 30.305 55.905, 32.211 57.811 C 33.159 58.759, 32.724 59.659, 30.211 61.955 C 26.873 65.003, 26.298 66.448, 28.003 67.502 C 28.554 67.842, 29.911 70.110, 31.018 72.540 C 32.361 75.488, 34.303 77.690, 36.856 79.160 C 38.960 80.370, 41.090 82.237, 41.591 83.307 C 43.029 86.387, 50.005 86.447, 54.113 83.417 C 55.908 82.092, 57.701 80.484, 58.097 79.843 C 58.547 79.115, 60.166 80.784, 62.405 84.284 C 65.336 88.867, 65.824 90.332, 65.074 92.306 C 64.002 95.125, 53.867 101.202, 50.659 100.949 C 44.744 100.482, 42 102.383, 42 106.949 C 42 112.315, 42.921 112.488, 72.404 112.640 C 102.400 112.794, 104 112.511, 104 107.048 C 104 102.735, 101.041 100.345, 96.381 100.895 C 94.211 101.152, 83.506 94.396, 82.228 91.964 C 80.657 88.973, 81.444 82.272, 83.654 79.830 C 85.116 78.215, 85.375 78.282, 87.856 80.930 C 92.479 85.864, 103.128 85.923, 103.841 81.019 C 104.187 78.638, 107.595 75.094, 109.596 75.033 C 112.605 74.942, 117 71.721, 117 69.607 C 117 67.468, 113.236 63.276, 110.007 61.820 C 109.016 61.373, 109.453 61.116, 111.281 61.070 C 113.008 61.027, 114.275 60.336, 114.622 59.250 C 114.930 58.288, 115.636 56.544, 116.193 55.375 C 117.363 52.917, 115.763 49, 113.590 49 C 112.853 49, 111.980 47.650, 111.650 46 C 111.286 44.178, 110.426 43, 109.462 43 C 108.549 43, 107.950 42.257, 108.052 41.250 C 108.150 40.288, 108.178 38.955, 108.115 38.289 C 107.965 36.710, 100.492 34.709, 97.862 35.544 C 96.432 35.998, 95.383 35.565, 94.354 34.096 C 93.547 32.943, 92.237 32, 91.443 32 C 90.649 32, 90 31.394, 90 30.654 C 90 28.402, 87.049 23.233, 85.403 22.601 C 84.552 22.274, 83.076 22.424, 82.124 22.934 C 81.074 23.496, 79.823 23.500, 78.946 22.946 C 76.874 21.634, 76.596 21.719, 73.490 24.597 C 71.036 26.871, 70.576 26.994, 69.789 25.587 C 69.003 24.182, 62.959 21, 61.078 21 C 60.705 21, 59.860 21.540, 59.200 22.200 M 59.816 25.710 C 59.591 27.641, 58.787 28.588, 57.024 29 C 55.037 29.465, 54.375 30.460, 53.673 34.039 C 53.192 36.493, 52.169 38.860, 51.399 39.300 C 50.630 39.740, 50 40.752, 50 41.550 C 50 43.399, 47.386 43.449, 46.682 41.613 C 45.822 39.372, 39.598 40.129, 39.142 42.530 C 38.937 43.614, 38.258 44.824, 37.634 45.219 C 36.799 45.749, 36.832 46.475, 37.758 47.969 C 38.812 49.669, 38.771 50, 37.508 50 C 36.679 50, 36 50.450, 36 51 C 36 51.550, 35.373 52, 34.607 52 C 32.470 52, 31.768 55.087, 33.476 56.973 C 35.655 59.381, 35.392 60.338, 32 62.341 C 30.350 63.316, 29 64.468, 29 64.903 C 29 66.866, 32.286 72, 33.542 72 C 34.420 72, 34.706 72.603, 34.313 73.628 C 33.545 75.629, 37.529 78.946, 40.738 78.978 C 42.453 78.995, 42.921 79.522, 42.738 81.231 C 42.526 83.218, 42.994 83.486, 47 83.677 C 49.658 83.804, 51.909 83.377, 52.500 82.634 C 53.050 81.942, 54.288 81.081, 55.250 80.719 C 56.212 80.358, 57 79.374, 57 78.531 C 57 74.867, 61.637 79.104, 65.457 86.258 C 68.298 91.581, 66.925 94.536, 59.631 98.799 C 56.405 100.684, 52.581 102.229, 51.133 102.233 C 44.213 102.252, 41.669 104.645, 43.980 108.962 C 45.037 110.938, 45.921 111, 73 111 C 100.079 111, 100.963 110.938, 102.020 108.962 C 102.620 107.841, 102.831 106.042, 102.489 104.965 C 101.895 103.095, 98.457 101.525, 96.406 102.188 C 94.820 102.701, 83.170 96.081, 81.525 93.732 C 79.011 90.143, 79.553 82.685, 82.589 79.077 C 85.315 75.837, 86.963 75.163, 87.055 77.250 C 87.086 77.938, 88.469 79.574, 90.128 80.886 C 95.077 84.800, 103.994 83.754, 102.344 79.454 C 101.832 78.121, 106.970 74.003, 109.154 73.995 C 109.894 73.992, 111.830 72.926, 113.456 71.625 L 116.413 69.259 113.214 66.060 C 110.907 63.753, 109.455 63.038, 108.007 63.498 C 106.800 63.881, 106 63.681, 106 62.996 C 106 61.129, 108.330 59.500, 111 59.500 C 112.669 59.500, 113.504 58.942, 113.513 57.821 C 113.520 56.897, 113.857 55.809, 114.263 55.404 C 115.813 53.853, 114.995 51, 113 51 C 111.900 51, 110.931 50.438, 110.848 49.750 C 110.764 49.063, 110.591 48.050, 110.463 47.500 C 110.335 46.950, 110.179 45.938, 110.115 45.250 C 110.052 44.563, 109.175 44, 108.167 44 C 105.537 44, 104.950 43.052, 106.271 40.938 C 107.560 38.874, 106.874 37.730, 104.232 37.536 C 103.260 37.464, 101.891 37.050, 101.189 36.617 C 100.481 36.179, 99.253 36.375, 98.432 37.056 C 97.618 37.732, 96.666 38, 96.318 37.651 C 95.969 37.303, 95.070 37.527, 94.319 38.150 C 93.239 39.046, 93.087 38.937, 93.589 37.629 C 94.496 35.264, 92.148 32.818, 89.712 33.591 C 88.042 34.122, 87.800 33.872, 88.266 32.092 C 88.573 30.917, 88.192 28.687, 87.418 27.136 C 86.158 24.609, 85.518 24.328, 81.251 24.416 C 78.049 24.482, 75.464 25.246, 73.354 26.748 L 70.218 28.981 68.565 26.459 C 67.656 25.071, 66.513 24.183, 66.025 24.484 C 65.537 24.786, 64.856 24.575, 64.510 24.016 C 63.174 21.855, 60.139 22.950, 59.816 25.710 M 61.502 26.007 C 61.961 27.453, 61.732 28.594, 60.857 29.219 C 59.830 29.953, 59.934 30.049, 61.282 29.613 C 62.550 29.204, 63.336 29.754, 64.007 31.519 C 65.039 34.234, 65.116 34.276, 67.418 33.393 C 69.146 32.730, 69.614 30, 68 30 C 67.450 30, 67 29.152, 67 28.117 C 67 27.081, 66.213 25.955, 65.250 25.616 C 64.287 25.276, 62.890 24.721, 62.145 24.381 C 61.127 23.917, 60.967 24.321, 61.502 26.007 M 75.209 27.690 C 73.778 29.297, 73.161 30.931, 73.538 32.118 C 73.884 33.209, 73.656 34, 72.996 34 C 72.314 34, 72.471 34.614, 73.386 35.529 C 74.227 36.370, 74.661 37.720, 74.351 38.529 C 74.040 39.338, 74.046 40, 74.364 40 C 74.683 40, 75.399 38.538, 75.957 36.750 L 76.971 33.500 76.659 36.750 C 76.313 40.343, 77.061 40.796, 79.429 38.429 C 81.324 36.533, 81.431 35.312, 79.750 34.746 C 78.787 34.422, 78.830 33.926, 79.936 32.586 C 81.142 31.126, 81.153 30.713, 80.006 30.004 C 79.255 29.540, 78.530 28.408, 78.395 27.488 C 78.019 24.922, 77.654 24.945, 75.209 27.690 M 82.162 26.604 C 80.639 27.365, 80.223 28.020, 80.971 28.482 C 81.602 28.872, 82.042 30.161, 81.948 31.346 C 81.855 32.530, 81.838 34.625, 81.912 36 L 82.044 38.500 83.954 36.015 C 85.004 34.648, 85.673 33.340, 85.440 33.107 C 85.208 32.874, 85.468 32.141, 86.019 31.477 C 86.698 30.660, 86.614 29.488, 85.761 27.852 C 84.651 25.725, 84.219 25.575, 82.162 26.604 M 55.896 30.215 C 55.838 30.372, 55.686 32.180, 55.557 34.234 C 55.379 37.071, 55.752 38.104, 57.111 38.535 C 58.223 38.888, 58.674 39.686, 58.304 40.650 C 57.790 41.990, 57.995 42.020, 59.830 40.874 C 61.207 40.014, 61.608 39.208, 60.975 38.575 C 59.402 37.002, 59.857 35.637, 61.500 37 C 62.325 37.685, 63.003 38.977, 63.006 39.872 C 63.010 40.830, 63.627 40.321, 64.506 38.636 C 66.350 35.100, 66.350 35, 64.500 35 C 63.641 35, 63 34.099, 63 32.893 C 63 31.388, 62.551 30.958, 61.428 31.389 C 60.563 31.721, 58.988 31.529, 57.928 30.961 C 56.867 30.394, 55.953 30.058, 55.896 30.215 M 70.667 31.667 C 70.300 32.033, 70 32.798, 70 33.367 C 70 33.993, 70.466 33.934, 71.183 33.217 C 71.834 32.566, 72.134 31.801, 71.850 31.517 C 71.566 31.232, 71.033 31.300, 70.667 31.667 M 67 37 C 67 38.100, 66.584 39, 66.077 39 C 65.569 39, 65.827 40.350, 66.650 42 C 68.521 45.750, 69.839 45.872, 69.357 42.250 L 68.991 39.500 70.079 42.250 C 71.299 45.335, 72.213 45.653, 73.926 43.589 C 74.727 42.624, 74.765 41.973, 74.049 41.530 C 73.472 41.174, 73 39.798, 73 38.472 C 73 36.819, 72.561 36.231, 71.601 36.600 C 70.832 36.895, 69.905 36.656, 69.542 36.068 C 68.461 34.318, 67 34.854, 67 37 M 89.048 35.949 C 88.249 36.455, 87.202 36.625, 86.721 36.328 C 85.522 35.587, 81.750 39.786, 82.510 41.016 C 82.904 41.653, 83.900 41.590, 85.311 40.839 C 87.290 39.784, 87.369 39.832, 86.128 41.336 C 85.032 42.665, 85.004 43.300, 85.991 44.489 C 86.671 45.308, 87.656 45.713, 88.180 45.389 C 88.704 45.065, 88.885 44.552, 88.582 44.249 C 88.279 43.946, 88.765 43.161, 89.662 42.506 C 91.298 41.309, 92.632 34.987, 91.242 35.015 C 90.834 35.024, 89.846 35.444, 89.048 35.949 M 96.357 39.116 C 93.567 39.902, 91.242 42.575, 92.368 43.702 C 92.597 43.930, 94.463 43.416, 96.515 42.558 C 99.650 41.248, 100.052 41.232, 99.037 42.456 C 97.185 44.687, 98.638 46.122, 101.451 44.840 C 103.344 43.978, 105.665 40.129, 104.710 39.434 C 103.546 38.587, 98.866 38.409, 96.357 39.116 M 51.604 40.832 C 51.344 41.252, 51.511 42.208, 51.973 42.957 C 52.436 43.706, 52.583 44.922, 52.300 45.659 C 52.018 46.397, 52.409 47, 53.171 47 C 53.932 47, 55.326 47.900, 56.268 49 C 58.588 51.709, 60.387 51.575, 59.630 48.750 C 59.299 47.513, 59.021 45.796, 59.014 44.935 C 58.999 43.242, 52.380 39.576, 51.604 40.832 M 77.533 41.352 C 75.796 42.623, 75.851 42.746, 78.460 43.401 C 81.711 44.217, 82.275 43.881, 81.417 41.643 C 80.651 39.647, 79.938 39.594, 77.533 41.352 M 39.672 44.917 C 39.372 46.470, 39.700 47.798, 40.494 48.248 C 41.272 48.688, 41.581 49.886, 41.246 51.166 C 40.799 52.877, 41.025 53.204, 42.313 52.710 C 43.312 52.327, 44.320 52.747, 44.906 53.792 C 45.798 55.379, 45.911 55.382, 46.510 53.827 C 46.907 52.798, 46.356 51.356, 45.077 50.077 C 43.935 48.935, 43 47.464, 43 46.809 C 43 46.154, 43.640 46.491, 44.421 47.559 C 45.416 48.917, 47.037 49.500, 49.824 49.500 C 52.014 49.500, 53.598 49.163, 53.344 48.750 C 53.090 48.337, 52.009 48, 50.941 48 C 49.677 48, 49 47.313, 49 46.031 C 49 44.692, 48.520 44.247, 47.500 44.638 C 46.595 44.986, 46 44.643, 46 43.774 C 46 42.849, 44.956 42.333, 43.085 42.333 C 40.745 42.333, 40.071 42.843, 39.672 44.917 M 60.667 42.667 C 59.445 43.888, 59.938 47.196, 61.250 46.584 C 61.938 46.263, 63.288 45.724, 64.250 45.384 C 66.427 44.616, 66.500 43.406, 64.418 42.607 C 62.385 41.827, 61.492 41.841, 60.667 42.667 M 50 45 C 50 45.733, 50.300 46.033, 50.667 45.667 C 51.033 45.300, 51.033 44.700, 50.667 44.333 C 50.300 43.967, 50 44.267, 50 45 M 89.410 45.870 C 87.861 49.415, 88.121 49.723, 91.644 48.512 C 94.731 47.450, 98.079 45.165, 96.950 44.890 C 93.449 44.037, 90.015 44.484, 89.410 45.870 M 80.542 47.549 C 78.730 49.228, 77.966 50.762, 78.302 52.048 C 78.583 53.120, 78.404 54.250, 77.906 54.558 C 76.761 55.266, 76.714 58, 77.847 58 C 78.313 58, 79.227 56.987, 79.878 55.750 C 81.084 53.457, 80.833 54.889, 79.396 58.500 C 78.647 60.380, 78.736 60.410, 80.866 59 C 82.113 58.175, 83.135 57.050, 83.138 56.500 C 83.140 55.950, 83.732 54.825, 84.453 54 C 86.738 51.385, 87.255 48.113, 85.640 46.497 C 83.711 44.568, 83.771 44.556, 80.542 47.549 M 101.480 46.033 C 101.151 46.565, 100.051 47, 99.035 47 C 97.671 47, 97.326 47.531, 97.718 49.028 C 98.113 50.541, 98.788 50.903, 100.374 50.453 C 101.984 49.995, 101.712 50.491, 99.250 52.497 C 97.463 53.953, 96 55.591, 96 56.136 C 96 56.681, 97.463 56.986, 99.250 56.813 C 101.702 56.577, 102.428 56.070, 102.206 54.750 C 101.988 53.450, 102.593 53, 104.563 53 C 106.601 53, 107.070 52.624, 106.590 51.373 C 106.216 50.400, 106.676 49.226, 107.731 48.455 C 108.702 47.745, 109.273 46.966, 108.998 46.725 C 107.815 45.685, 102.024 45.151, 101.480 46.033 M 69.697 46.750 C 69.466 47.163, 69.003 48.649, 68.668 50.054 C 68.026 52.752, 70.626 56, 73.428 56 C 74.201 56, 75.029 56.563, 75.269 57.250 C 75.509 57.938, 76.033 56.604, 76.434 54.287 C 77.237 49.649, 76.645 47.815, 74.597 48.601 C 73.861 48.884, 72.989 48.414, 72.660 47.557 C 72.032 45.920, 70.411 45.478, 69.697 46.750 M 92 50.378 C 92 52.223, 94.651 54.334, 95.956 53.527 C 96.530 53.172, 97 52.009, 97 50.941 C 97 49.537, 96.308 49, 94.500 49 C 93.043 49, 92 49.575, 92 50.378 M 49.750 50.749 C 47.701 51.214, 47.649 51.475, 49.070 54.130 C 49.924 55.726, 50.428 55.890, 51.570 54.942 C 54.299 52.677, 53.129 49.982, 49.750 50.749 M 108 52 C 108 53.292, 107.333 54, 106.117 54 C 105.074 54, 104 54.893, 103.710 56 C 103.357 57.351, 102.346 58, 100.594 58 C 99.167 58, 98 58.450, 98 59 C 98 59.550, 99.773 60, 101.941 60 C 104.109 60, 106.160 59.550, 106.500 59 C 106.840 58.450, 108.164 58, 109.442 58 C 110.754 58, 112.036 57.238, 112.384 56.250 C 112.724 55.288, 113.263 53.938, 113.584 53.250 C 113.951 52.464, 113.394 52, 112.083 52 C 110.938 52, 110 51.550, 110 51 C 110 50.450, 109.550 50, 109 50 C 108.450 50, 108 50.900, 108 52 M 37 52.521 C 37 53.335, 36.325 54, 35.500 54 C 34.675 54, 34 54.350, 34 54.778 C 34 56.024, 37.884 59, 39.511 59 C 40.330 59, 41 59.675, 41 60.500 C 41 61.325, 41.648 62, 42.441 62 C 44.340 62, 45.328 60.321, 43.935 59.460 C 43.332 59.087, 43.072 57.818, 43.357 56.641 C 43.765 54.960, 43.139 54.129, 40.438 52.771 C 37.517 51.302, 37 51.265, 37 52.521 M 59.563 53.184 C 57.700 54.953, 57.254 59.074, 58.501 63.002 C 59.358 65.702, 61.381 65.566, 60.673 62.856 C 60.357 61.648, 60.487 61.102, 60.971 61.606 C 61.444 62.098, 61.981 63.530, 62.165 64.790 C 62.615 67.866, 64.421 67.690, 64.816 64.531 C 64.990 63.139, 64.642 62, 64.043 62 C 63.390 62, 63.108 60.595, 63.339 58.500 C 63.611 56.024, 63.326 55, 62.362 55 C 61.613 55, 61 54.628, 61 54.173 C 61 53.718, 62.350 53.545, 64 53.787 C 65.650 54.029, 67 53.777, 67 53.227 C 67 51.359, 61.518 51.328, 59.563 53.184 M 85.543 54.931 C 84.860 56.036, 86.437 57.230, 87.361 56.306 C 88.311 55.355, 88.134 54, 87.059 54 C 86.541 54, 85.859 54.419, 85.543 54.931 M 45.500 56.593 L 43.500 58.124 45.500 59.612 C 46.600 60.431, 48.856 60.986, 50.514 60.846 C 52.172 60.705, 54.022 60.896, 54.625 61.268 C 55.228 61.641, 56.009 61.658, 56.361 61.306 C 57.779 59.887, 56.837 59, 53.910 59 C 52.066 59, 50.152 58.207, 49.160 57.031 C 47.647 55.236, 47.323 55.197, 45.500 56.593 M 66.856 55.669 C 64.757 56.227, 63.814 60.715, 65.648 61.419 C 66.392 61.704, 67 62.626, 67 63.469 C 67 64.318, 67.865 65, 68.941 65 C 70.009 65, 71.160 65.450, 71.500 66 C 71.840 66.550, 72.541 67, 73.059 67 C 74.558 67, 74.152 64.830, 72.250 62.674 C 70.521 60.715, 70.532 60.711, 73.157 62.400 C 76.250 64.389, 78.051 62.908, 75.564 60.421 C 74.704 59.561, 74 58.453, 74 57.960 C 74 57.467, 73.329 57.320, 72.508 57.635 C 71.657 57.962, 70.753 57.519, 70.401 56.604 C 69.769 54.956, 69.653 54.925, 66.856 55.669 M 85.269 58.404 C 84.042 58.984, 82.800 60.080, 82.508 60.840 C 81.982 62.210, 83.121 62.137, 88.657 60.446 C 89.671 60.136, 88.746 60.854, 86.602 62.041 C 83.740 63.626, 83.063 64.421, 84.055 65.034 C 84.797 65.493, 85.876 65.571, 86.452 65.209 C 87.029 64.846, 88.287 64.679, 89.250 64.838 C 90.213 64.996, 91 64.647, 91 64.063 C 91 63.478, 91.563 62.996, 92.250 62.992 C 93.952 62.982, 96.260 58.055, 94.656 57.858 C 90.259 57.316, 87.196 57.494, 85.269 58.404 M 37.500 61 C 37.160 61.550, 37.359 62, 37.941 62 C 38.523 62, 39 61.550, 39 61 C 39 60.450, 38.802 60, 38.559 60 C 38.316 60, 37.840 60.450, 37.500 61 M 79 62.559 C 79 63.416, 79.450 63.840, 80 63.500 C 80.550 63.160, 81 62.459, 81 61.941 C 81 61.423, 80.550 61, 80 61 C 79.450 61, 79 61.702, 79 62.559 M 99 64.073 C 99 66.388, 99.405 67.067, 100.643 66.823 C 103.271 66.306, 104.813 63.142, 103 61.987 C 100.270 60.247, 99 60.909, 99 64.073 M 34 63.441 C 34 64.382, 33.108 65.013, 31.750 65.032 C 29.666 65.061, 29.629 65.162, 31.250 66.392 C 32.212 67.123, 33 68.201, 33 68.789 C 33 69.378, 34.570 69.777, 36.496 69.679 C 40.149 69.492, 41.267 67.536, 38.250 66.609 C 37.288 66.314, 37.759 66.222, 39.298 66.406 C 41.441 66.663, 42.024 66.361, 41.786 65.121 C 41.601 64.158, 40.423 63.460, 38.886 63.401 C 37.463 63.347, 35.781 62.983, 35.149 62.592 C 34.471 62.173, 34 62.521, 34 63.441 M 44.057 62.944 C 42.867 63.696, 42.829 64.330, 43.840 66.548 C 44.916 68.910, 44.868 69.163, 43.441 68.616 C 42.359 68.200, 41.650 68.623, 41.321 69.880 C 41.018 71.038, 40.185 71.603, 39.164 71.341 C 38.224 71.100, 36.952 71.804, 36.242 72.957 C 35.195 74.656, 35.229 75, 36.442 75 C 37.244 75, 38.288 75.692, 38.762 76.539 C 39.492 77.843, 39.994 77.880, 42.061 76.783 C 46.889 74.222, 47.069 73.998, 45.958 71.922 C 45.172 70.453, 45.296 69.416, 46.455 67.760 C 49.392 63.568, 47.877 60.527, 44.057 62.944 M 49.433 64.778 C 49.587 66.223, 50.230 67.577, 50.863 67.788 C 51.495 67.998, 51.756 68.586, 51.443 69.092 C 51.130 69.599, 51.689 70.315, 52.687 70.682 C 53.684 71.049, 54.849 71.927, 55.276 72.633 C 55.703 73.339, 56.744 73.652, 57.588 73.328 C 58.839 72.848, 58.603 72.189, 56.312 69.774 L 53.500 66.810 57.250 69.004 C 60.486 70.897, 61 70.974, 61 69.567 C 61 68.671, 60.325 67.678, 59.500 67.362 C 58.675 67.045, 58 66.212, 58 65.510 C 58 64.251, 55.574 63.154, 51.326 62.492 C 49.508 62.208, 49.198 62.581, 49.433 64.778 M 76.920 64.844 C 76.875 65.205, 76.723 67.789, 76.580 70.586 C 76.197 78.085, 75.165 79.016, 72.362 74.386 C 71.069 72.249, 70.008 69.713, 70.005 68.750 C 70.002 67.722, 69.244 67, 68.167 67 C 65.145 67, 64.982 68.081, 67.658 70.382 C 69.250 71.751, 70.486 74.191, 70.993 76.961 C 72.089 82.956, 71.470 84.354, 68.562 82.448 C 65.816 80.650, 64 76.892, 64 73.012 C 64 71.420, 63.550 69.840, 63 69.500 C 62.450 69.160, 62 69.584, 62 70.441 C 62 71.298, 61.598 72, 61.107 72 C 58.931 72, 59.066 75.464, 61.336 77.913 C 62.656 79.336, 64.969 82.649, 66.478 85.276 C 68.971 89.618, 69.104 90.335, 67.934 93.161 C 67.206 94.916, 64.747 97.473, 62.281 99.037 C 59.880 100.559, 58.460 101.987, 59.126 102.209 C 61.339 102.946, 67.433 99.029, 69.187 95.741 C 70.138 93.958, 70.935 93.085, 70.958 93.800 C 70.981 94.514, 70.283 96.487, 69.406 98.182 C 68.099 100.709, 68.051 101.414, 69.141 102.087 C 69.969 102.599, 70.779 102.360, 71.285 101.455 C 72.332 99.584, 74.471 99.607, 77.392 101.521 C 79.023 102.590, 80.417 102.781, 82.084 102.164 C 84.450 101.290, 84.447 101.283, 81.185 99.596 C 77.379 97.627, 75.946 94.531, 76.136 88.685 C 76.215 86.267, 76.434 85.555, 76.656 87 C 78.001 95.766, 78.068 95.904, 82.443 98.857 C 87.432 102.224, 91 103.595, 91 102.145 C 91 101.601, 89.499 100.660, 87.665 100.054 C 85.831 99.449, 83.066 97.635, 81.522 96.023 C 79.140 93.537, 78.714 92.258, 78.714 87.589 C 78.714 82.056, 80.649 77.487, 83.777 75.633 C 84.986 74.917, 85.006 74.622, 83.893 73.934 C 83.058 73.418, 81.872 73.711, 80.773 74.706 C 79.106 76.214, 79 76.088, 79 72.589 C 79 70.543, 79.439 68.048, 79.976 67.045 C 80.748 65.601, 80.540 65.113, 78.976 64.704 C 77.889 64.420, 76.964 64.483, 76.920 64.844 M 92 65 C 92 65.550, 90.925 66, 89.611 66 C 88.297 66, 86.159 66.925, 84.861 68.056 C 82.640 69.991, 82.629 70.050, 84.684 69.056 C 87.840 67.530, 88.390 67.753, 86.393 69.750 C 83.408 72.735, 87.305 72.549, 90.538 69.552 C 92.053 68.149, 92.946 67, 92.524 67 C 92.101 67, 92.315 66.325, 93 65.500 C 93.860 64.464, 93.898 64, 93.122 64 C 92.505 64, 92 64.450, 92 65 M 104.385 66.189 C 104.150 66.567, 104.755 67.347, 105.729 67.921 C 107.119 68.741, 106.748 68.856, 104 68.456 C 101.068 68.029, 100.865 68.108, 102.750 68.941 C 103.987 69.488, 105 70.400, 105 70.968 C 105 72.388, 108.554 72.264, 111.264 70.750 C 112.494 70.063, 113.650 69.425, 113.833 69.333 C 114.017 69.242, 113.274 68.274, 112.183 67.183 C 110.305 65.305, 105.327 64.670, 104.385 66.189 M 81.081 67.849 C 79.715 70.401, 79.675 73.319, 81.016 72.490 C 81.575 72.144, 81.762 71.423, 81.430 70.887 C 81.099 70.351, 81.381 69.246, 82.056 68.432 C 82.732 67.618, 83.032 66.699, 82.724 66.390 C 82.415 66.081, 81.676 66.738, 81.081 67.849 M 71 68.550 C 71 68.852, 71.743 70.536, 72.652 72.293 C 74.138 75.168, 74.372 75.289, 74.997 73.509 C 76.021 70.589, 75.028 68, 72.883 68 C 71.848 68, 71 68.247, 71 68.550 M 65.004 72.715 C 65.006 74.247, 65.993 77.075, 67.197 79 C 68.981 81.851, 69.461 82.157, 69.786 80.650 C 70.502 77.329, 68.957 72.048, 66.957 70.977 C 65.232 70.054, 65 70.260, 65.004 72.715 M 94.750 72.025 C 97.088 73.143, 99 74.495, 99 75.029 C 99 76.224, 102.016 76.276, 103.853 75.112 C 104.843 74.485, 104.935 73.747, 104.197 72.367 C 103.395 70.869, 101.880 70.430, 96.843 70.236 L 90.500 69.992 94.750 72.025 M 52.015 73.156 C 52.005 74.318, 51.402 74.656, 50 74.290 C 48.882 73.997, 48 74.259, 48 74.883 C 48 75.498, 47.325 76, 46.500 76 C 45.675 76, 44.994 76.563, 44.986 77.250 C 44.979 77.938, 44.688 79.564, 44.340 80.863 C 43.774 82.977, 43.918 83.114, 45.700 82.160 C 47.112 81.405, 48.005 81.405, 48.760 82.160 C 50.021 83.421, 52 82.442, 52 80.558 C 52 79.829, 52.900 78.998, 54 78.710 C 55.100 78.423, 56 77.695, 56 77.094 C 56 75.714, 54.487 75.701, 51.684 77.056 L 49.500 78.113 51.660 76.219 C 53.152 74.911, 53.543 73.889, 52.925 72.913 C 52.190 71.752, 52.028 71.795, 52.015 73.156 M 91.244 72.664 C 90.380 73.013, 90.691 73.756, 92.244 75.052 C 95.018 77.366, 93.828 77.589, 90.465 75.385 C 87.170 73.226, 87.081 75.596, 90.340 78.684 C 93.752 81.917, 101.471 82.391, 100.283 79.294 C 99.298 76.728, 96.719 74, 95.278 74 C 94.575 74, 94 73.550, 94 73 C 94 71.935, 93.272 71.847, 91.244 72.664 M 65 102 C 65 102.733, 65.300 103.033, 65.667 102.667 C 66.033 102.300, 66.033 101.700, 65.667 101.333 C 65.300 100.967, 65 101.267, 65 102 M 73.500 102 C 73.840 102.550, 74.316 103, 74.559 103 C 74.802 103, 75 102.550, 75 102 C 75 101.450, 74.523 101, 73.941 101 C 73.359 101, 73.160 101.450, 73.500 102 M 46.529 104.355 C 45.569 105.057, 44.950 106.502, 45.154 107.566 C 45.453 109.124, 46.436 109.527, 50.214 109.640 L 54.902 109.781 53.310 107.350 C 51.027 103.867, 48.639 102.812, 46.529 104.355 M 65.750 103.785 C 62.489 104.197, 62.342 104.916, 64.946 107.711 C 67.456 110.406, 74.486 110.776, 73.074 108.139 C 71.485 105.170, 68.559 103.431, 65.750 103.785 M 84.655 103.927 L 81.810 104.500 83.900 107.151 C 85.491 109.170, 86.825 109.779, 89.495 109.703 C 93.412 109.592, 93.397 109.609, 91.977 106.957 C 90.559 104.307, 88.009 103.252, 84.655 103.927" stroke="none" fill="#083067" fill-rule="evenodd"/></svg>